<svg width="1344" height="584" viewBox="0 0 1344 584" fill="none" xmlns="http://www.w3.org/2000/svg">
<g clip-path="url(#clip0_2_2492)">
<rect width="1344" height="151.003" transform="matrix(1 0 0 -1 0 537.003)" fill="url(#paint0_linear_2_2492)"/>
<path d="M359.957 465.981C424.917 479.559 487.816 503.895 552.597 518.656C644.874 539.695 740.97 540.966 833.101 519.147C922.634 497.994 1015.47 446.401 1103.94 420.19C1182.4 396.935 1268.05 387.359 1344 416.414V537.003H0V502.587C114.762 453.694 239.247 441.035 359.957 465.981V465.981Z" fill="white"/>
</g>
<rect width="1344" height="386" fill="url(#paint1_linear_2_2492)"/>
<rect x="1.09961" y="533.127" width="1342.22" height="50.8725" fill="white"/>
<path fill-rule="evenodd" clip-rule="evenodd" d="M190 41.75C189.138 41.75 188.311 41.4076 187.702 40.7981C187.092 40.1886 186.75 39.362 186.75 38.5C186.75 37.638 187.092 36.8114 187.702 36.2019C188.311 35.5924 189.138 35.25 190 35.25H206.25C207.112 35.25 207.939 35.5924 208.548 36.2019C209.158 36.8114 209.5 37.638 209.5 38.5V54.75C209.5 55.612 209.158 56.4386 208.548 57.0481C207.939 57.6576 207.112 58 206.25 58C205.388 58 204.561 57.6576 203.952 57.0481C203.342 56.4386 203 55.612 203 54.75V46.3455L189.048 60.2977C188.438 60.907 187.612 61.2493 186.75 61.2493C185.888 61.2493 185.062 60.907 184.452 60.2977L177 52.8455L163.048 66.7977C162.435 67.3898 161.614 67.7173 160.762 67.7099C159.91 67.7025 159.094 67.3607 158.492 66.7582C157.889 66.1556 157.547 65.3404 157.54 64.4883C157.533 63.6362 157.86 62.8152 158.452 62.2023L174.702 45.9523C175.312 45.343 176.138 45.0007 177 45.0007C177.862 45.0007 178.688 45.343 179.298 45.9523L186.75 53.4045L198.404 41.75H190Z" fill="white"/>
<path d="M42.656 68.48C40.672 68.48 38.928 67.984 37.424 66.992C35.952 66 34.976 64.672 34.496 63.008L35.024 61.808V65.312C35.024 66.304 34.768 67.072 34.256 67.616C33.744 68.128 33.024 68.384 32.096 68.384C31.136 68.384 30.4 68.128 29.888 67.616C29.376 67.072 29.12 66.304 29.12 65.312V36.8C29.12 35.808 29.376 35.056 29.888 34.544C30.4 34.032 31.136 33.776 32.096 33.776C33.056 33.776 33.792 34.032 34.304 34.544C34.848 35.056 35.12 35.808 35.12 36.8V49.28H34.544C35.056 47.712 36.048 46.448 37.52 45.488C38.992 44.528 40.704 44.048 42.656 44.048C44.736 44.048 46.544 44.544 48.08 45.536C49.616 46.528 50.816 47.936 51.68 49.76C52.544 51.552 52.976 53.712 52.976 56.24C52.976 58.736 52.544 60.912 51.68 62.768C50.816 64.592 49.6 66 48.032 66.992C46.496 67.984 44.704 68.48 42.656 68.48ZM40.976 63.92C42.16 63.92 43.2 63.632 44.096 63.056C44.992 62.48 45.68 61.632 46.16 60.512C46.672 59.36 46.928 57.936 46.928 56.24C46.928 53.68 46.384 51.776 45.296 50.528C44.208 49.248 42.768 48.608 40.976 48.608C39.792 48.608 38.752 48.896 37.856 49.472C36.96 50.016 36.256 50.864 35.744 52.016C35.264 53.136 35.024 54.544 35.024 56.24C35.024 58.768 35.568 60.688 36.656 62C37.744 63.28 39.184 63.92 40.976 63.92ZM60.8773 68.336C59.9173 68.336 59.1813 68.048 58.6693 67.472C58.1573 66.896 57.9013 66.096 57.9013 65.072V47.456C57.9013 46.4 58.1573 45.6 58.6693 45.056C59.1813 44.48 59.9173 44.192 60.8773 44.192C61.8373 44.192 62.5733 44.48 63.0853 45.056C63.6293 45.6 63.9013 46.4 63.9013 47.456V65.072C63.9013 66.096 63.6453 66.896 63.1333 67.472C62.6213 68.048 61.8693 68.336 60.8773 68.336ZM60.8773 39.728C59.7573 39.728 58.8773 39.456 58.2373 38.912C57.6293 38.336 57.3253 37.552 57.3253 36.56C57.3253 35.536 57.6293 34.752 58.2373 34.208C58.8773 33.664 59.7573 33.392 60.8773 33.392C62.0293 33.392 62.9093 33.664 63.5173 34.208C64.1253 34.752 64.4293 35.536 64.4293 36.56C64.4293 37.552 64.1253 38.336 63.5173 38.912C62.9093 39.456 62.0293 39.728 60.8773 39.728ZM79.1596 68.48C77.1116 68.48 75.3036 67.984 73.7356 66.992C72.1996 66 70.9996 64.592 70.1356 62.768C69.2716 60.912 68.8396 58.736 68.8396 56.24C68.8396 53.712 69.2716 51.552 70.1356 49.76C70.9996 47.936 72.1996 46.528 73.7356 45.536C75.3036 44.544 77.1116 44.048 79.1596 44.048C81.1116 44.048 82.8076 44.528 84.2476 45.488C85.7196 46.448 86.7116 47.712 87.2236 49.28H86.6956V36.8C86.6956 35.808 86.9516 35.056 87.4636 34.544C87.9756 34.032 88.7116 33.776 89.6716 33.776C90.6316 33.776 91.3676 34.032 91.8796 34.544C92.4236 35.056 92.6956 35.808 92.6956 36.8V65.312C92.6956 66.304 92.4396 67.072 91.9276 67.616C91.4156 68.128 90.6796 68.384 89.7196 68.384C88.7596 68.384 88.0236 68.128 87.5116 67.616C86.9996 67.072 86.7436 66.304 86.7436 65.312V61.568L87.2716 63.008C86.7916 64.672 85.8156 66 84.3436 66.992C82.8716 67.984 81.1436 68.48 79.1596 68.48ZM80.8396 63.92C82.0236 63.92 83.0636 63.632 83.9596 63.056C84.8556 62.48 85.5436 61.632 86.0236 60.512C86.5356 59.36 86.7916 57.936 86.7916 56.24C86.7916 53.68 86.2476 51.776 85.1596 50.528C84.0716 49.248 82.6316 48.608 80.8396 48.608C79.6556 48.608 78.6156 48.896 77.7196 49.472C76.8236 50.016 76.1196 50.864 75.6076 52.016C75.1276 53.136 74.8876 54.544 74.8876 56.24C74.8876 58.768 75.4316 60.688 76.5196 62C77.6076 63.28 79.0476 63.92 80.8396 63.92ZM101.893 68.336C100.933 68.336 100.197 68.048 99.6849 67.472C99.1729 66.896 98.9169 66.096 98.9169 65.072V47.456C98.9169 46.4 99.1729 45.6 99.6849 45.056C100.197 44.48 100.933 44.192 101.893 44.192C102.853 44.192 103.589 44.48 104.101 45.056C104.645 45.6 104.917 46.4 104.917 47.456V65.072C104.917 66.096 104.661 66.896 104.149 67.472C103.637 68.048 102.885 68.336 101.893 68.336ZM101.893 39.728C100.773 39.728 99.8929 39.456 99.2529 38.912C98.6449 38.336 98.3409 37.552 98.3409 36.56C98.3409 35.536 98.6449 34.752 99.2529 34.208C99.8929 33.664 100.773 33.392 101.893 33.392C103.045 33.392 103.925 33.664 104.533 34.208C105.141 34.752 105.445 35.536 105.445 36.56C105.445 37.552 105.141 38.336 104.533 38.912C103.925 39.456 103.045 39.728 101.893 39.728ZM115.759 68.384C114.799 68.384 114.047 68.128 113.503 67.616C112.991 67.072 112.735 66.304 112.735 65.312V49.04H110.527C109.759 49.04 109.167 48.848 108.751 48.464C108.335 48.048 108.127 47.488 108.127 46.784C108.127 46.048 108.335 45.488 108.751 45.104C109.167 44.72 109.759 44.528 110.527 44.528H114.463L112.735 46.112V44.48C112.735 41.184 113.567 38.72 115.231 37.088C116.895 35.424 119.295 34.448 122.431 34.16L124.063 34.016C124.703 33.952 125.215 34.064 125.599 34.352C125.983 34.608 126.239 34.96 126.367 35.408C126.495 35.824 126.511 36.256 126.415 36.704C126.319 37.152 126.111 37.552 125.791 37.904C125.503 38.224 125.119 38.4 124.639 38.432L123.967 38.48C122.143 38.608 120.815 39.072 119.983 39.872C119.151 40.672 118.735 41.888 118.735 43.52V45.296L117.967 44.528H122.815C123.583 44.528 124.175 44.72 124.591 45.104C125.007 45.488 125.215 46.048 125.215 46.784C125.215 47.488 125.007 48.048 124.591 48.464C124.175 48.848 123.583 49.04 122.815 49.04H118.735V65.312C118.735 67.36 117.743 68.384 115.759 68.384ZM134.119 77.024C133.415 77.024 132.839 76.832 132.391 76.448C131.943 76.096 131.671 75.616 131.575 75.008C131.511 74.4 131.623 73.76 131.911 73.088L135.175 65.84V68.336L126.439 48.128C126.151 47.424 126.055 46.768 126.151 46.16C126.247 45.552 126.535 45.072 127.015 44.72C127.527 44.336 128.215 44.144 129.079 44.144C129.815 44.144 130.407 44.32 130.855 44.672C131.303 44.992 131.703 45.616 132.055 46.544L138.535 62.72H137.095L143.719 46.496C144.071 45.6 144.487 44.992 144.967 44.672C145.447 44.32 146.087 44.144 146.887 44.144C147.591 44.144 148.151 44.336 148.567 44.72C148.983 45.072 149.239 45.552 149.335 46.16C149.431 46.736 149.319 47.376 148.999 48.08L137.335 74.72C136.919 75.616 136.471 76.224 135.991 76.544C135.511 76.864 134.887 77.024 134.119 77.024Z" fill="white"/>
<defs>
<linearGradient id="paint0_linear_2_2492" x1="672" y1="0" x2="672" y2="151.003" gradientUnits="userSpaceOnUse">
<stop stop-color="#FF7A00" stop-opacity="0.15"/>
<stop offset="1" stop-color="#FF7A00" stop-opacity="0.72"/>
</linearGradient>
<linearGradient id="paint1_linear_2_2492" x1="672" y1="0" x2="672" y2="386" gradientUnits="userSpaceOnUse">
<stop offset="0.442087" stop-color="#EF4444"/>
<stop offset="1" stop-color="#FF7A00" stop-opacity="0.72"/>
</linearGradient>
<clipPath id="clip0_2_2492">
<rect width="1344" height="151.003" fill="white" transform="matrix(1 0 0 -1 0 537.003)"/>
</clipPath>
</defs>
</svg>
